<?xml version="1.0" standalone="no"?>
<!DOCTYPE svg PUBLIC "-//W3C//DTD SVG 20010904//EN"
 "http://www.w3.org/TR/2001/REC-SVG-20010904/DTD/svg10.dtd">
<svg version="1.0" xmlns="http://www.w3.org/2000/svg"
 width="406.000000pt" height="393.000000pt" viewBox="0 0 406.000000 393.000000"
 preserveAspectRatio="xMidYMid meet">

<g transform="translate(0.000000,393.000000) scale(0.100000,-0.100000)"
fill="#000000" stroke="none">
<path d="M285 3906 c-127 -31 -221 -111 -254 -219 -42 -139 -36 -264 24 -461
35 -115 104 -290 112 -283 2 3 -10 50 -26 106 -200 672 193 892 935 522 581
-290 1199 -818 1722 -1469 133 -166 112 -165 211 -18 l60 89 -171 178 c-425
444 -922 862 -1335 1121 -356 224 -716 384 -972 432 -97 19 -235 20 -306 2z"/>
<path d="M3229 1948 c-30 -25 -171 -197 -167 -205 1 -4 24 -39 49 -78 134
-202 247 -431 319 -643 50 -150 64 -232 58 -351 -6 -127 -30 -183 -110 -256
-82 -76 -131 -90 -313 -89 -131 1 -148 3 -263 38 -68 20 -181 61 -251 91 -70
30 -132 55 -137 55 -23 0 240 -160 411 -251 136 -72 403 -180 511 -208 128
-33 291 -54 360 -47 167 17 282 96 330 226 25 69 29 218 9 325 -50 266 -190
566 -440 940 -88 131 -288 398 -344 458 -4 4 -14 1 -22 -5z"/>
</g>
</svg>
